<?xml version="1.0" encoding="UTF-8" standalone="no"?>
<svg
   fill="#000000"
   width="761"
   height="745"
   viewBox="0 0 34.245 33.525"
   version="1.1"
   preserveAspectRatio="xMidYMid"
   id="svg1"
   sodipodi:docname="callSferum.svg"
   inkscape:version="1.4 (unknown)"
   xmlns:inkscape="http://www.inkscape.org/namespaces/inkscape"
   xmlns:sodipodi="http://sodipodi.sourceforge.net/DTD/sodipodi-0.dtd"
   xmlns="http://www.w3.org/2000/svg"
   xmlns:svg="http://www.w3.org/2000/svg"
   xmlns:rdf="http://www.w3.org/1999/02/22-rdf-syntax-ns#"
   xmlns:cc="http://creativecommons.org/ns#"
   xmlns:dc="http://purl.org/dc/elements/1.1/">
  <defs
     id="defs1" />
  <sodipodi:namedview
     id="namedview1"
     pagecolor="#ffffff"
     bordercolor="#000000"
     borderopacity="0.25"
     inkscape:showpageshadow="2"
     inkscape:pageopacity="0.0"
     inkscape:pagecheckerboard="0"
     inkscape:deskcolor="#d1d1d1"
     inkscape:zoom="1.45625"
     inkscape:cx="400"
     inkscape:cy="399.65665"
     inkscape:window-width="1920"
     inkscape:window-height="1008"
     inkscape:window-x="0"
     inkscape:window-y="0"
     inkscape:window-maximized="1"
     inkscape:current-layer="svg1" />
  <title
     id="title1">phone-handset-solid</title>
  <path
     class="clr-i-solid clr-i-solid-path-1"
     d="m 14.26206,19.589356 a 20.37,20.37 0 0 0 7.4,4.79 l 3.77,-3 a 0.67,0.67 0 0 1 0.76,0 l 7,4.51 a 2,2 0 0 1 0.33,3.18 l -3.28,3.24 a 4,4 0 0 1 -3.63,1.07 35.09,35.09 0 0 1 -17.1499999,-9 33.79,33.79 0 0 1 -9.27000001,-16.8299998 3.78,3.78 0 0 1 1.10000001,-3.55 l 3.4,-3.27999998 a 2,2 0 0 1 3.12,0.31999998 l 4.6599999,6.91 a 0.63,0.63 0 0 1 0,0.75 L 9.4020601,12.389356 a 19.75,19.75 0 0 0 4.8599999,7.2 z"
     id="path1"
     style="fill:#42b9b3;fill-opacity:1" />
  <rect
     x="0"
     y="0"
     width="36"
     height="36"
     fill-opacity="0"
     id="rect1" />
  <metadata
     id="metadata1">
    <rdf:RDF>
      <cc:Work
         rdf:about="">
        <dc:title>phone-handset-solid</dc:title>
      </cc:Work>
    </rdf:RDF>
  </metadata>
</svg>
