<?xml version="1.0" encoding="utf-8"?>
<!-- Generator: Adobe Illustrator 27.2.0, SVG Export Plug-In . SVG Version: 6.00 Build 0)  -->
<svg version="1.1" id="Слой_1" xmlns="http://www.w3.org/2000/svg" xmlns:xlink="http://www.w3.org/1999/xlink" x="0px" y="0px"
	 width="500px" height="500px" viewBox="0 0 500 500" style="enable-background:new 0 0 500 500;" xml:space="preserve">
<style type="text/css">
	.st0{fill:url(#SVGID_1_);}
	.st1{fill:url(#SVGID_00000007386210917878656400000000625280836450288785_);}
</style>
<g>
	
		<linearGradient id="SVGID_1_" gradientUnits="userSpaceOnUse" x1="93.3645" y1="2737.062" x2="403.4761" y2="2465.717" gradientTransform="matrix(1 0 0 1 0 -2350)">
		<stop  offset="0" style="stop-color:#0000C9"/>
		<stop  offset="0.1277" style="stop-color:#2006C9"/>
		<stop  offset="0.3216" style="stop-color:#4A0EC8"/>
		<stop  offset="0.5106" style="stop-color:#6B14C8"/>
		<stop  offset="0.6905" style="stop-color:#8318C7"/>
		<stop  offset="0.8578" style="stop-color:#911BC7"/>
		<stop  offset="1" style="stop-color:#961CC7"/>
	</linearGradient>
	<path class="st0" d="M437.2,132.8c-12.3-12.4-28.6-20.2-47.4-22.8c-2.6-18.9-10.4-35.2-22.7-47.5c-84.4-83.4-220.6-83.4-304.3,0.7
		s-83.7,220.2,0,303.5c12.3,12.4,28.6,20.2,47.4,22.8c2.6,18.9,10.4,35.2,22.7,47.5c83.7,84,220,84,304.3,0
		C520.9,353,520.9,216.8,437.2,132.8z"/>
	
		<radialGradient id="SVGID_00000042702441567998902590000006060748817238215051_" cx="-577.7752" cy="164.0403" r="13.5191" gradientTransform="matrix(-8.8569 -10.9357 16.148 -13.0483 -7460.8774 -3868.9583)" gradientUnits="userSpaceOnUse">
		<stop  offset="0" style="stop-color:#0B25CE"/>
		<stop  offset="0.4859" style="stop-color:#2C93DB"/>
		<stop  offset="0.8379" style="stop-color:#42DCE4"/>
		<stop  offset="1" style="stop-color:#4BF9E8"/>
	</radialGradient>
	<path style="fill:url(#SVGID_00000042702441567998902590000006060748817238215051_);" d="M195.8,196c62.9-62.5,138.9-94.4,193.4-86
		c-2.6-18.9-10.4-35.2-22.7-47.5c-48.7-48.9-156.4-20.8-240.8,63.2c-83.7,84-112.3,191.5-62.9,241c12.3,12.4,28.6,20.2,47.4,22.8
		C101.7,334.7,133.5,258.5,195.8,196z"/>
</g>
</svg>
